
        <svg xmlns="http://www.w3.org/2000/svg" xmlns:xlink="http://www.w3.org/1999/xlink" version="1.1" width="3146.404478254629" height="775.9437347495336" viewBox="0 0 3146.404478254629 775.9437347495336">
			
			<g transform="scale(7.320223912731449) translate(10, 10)">
				<defs id="SvgjsDefs1016"><radialGradient id="SvgjsRadialGradient1023"><stop id="SvgjsStop1024" stop-color="#f5ec9b" offset="0"/><stop id="SvgjsStop1025" stop-color="#905e26" offset="1"/></radialGradient></defs><g id="SvgjsG1017" featureKey="symbolContainer" transform="matrix(1,0,0,1,0,0)" fill="#000"><rect xmlns="http://www.w3.org/2000/svg" width="81" height="86" rx="10" ry="10"/></g><g id="SvgjsG1018" featureKey="uHI19F-0" transform="matrix(0.1016938993059441,0,0,0.1016938993059441,15.101201392633968,17.571143023804538)" fill="#ffffff"><g xmlns="http://www.w3.org/2000/svg"><path d="M250.625,477.409l-17.702-24.495l-8.284,18.635l-89.752-83.309l-9.358,21.442l-35.484-86.484   l-13.899,27.062l-6.507-95.839l-20.984,21.638l17.209-77.431L48.172,219.36l18.579-81.956l57.733-58.083l-12.203-3.12   l65.303-38.051L157.536,32.7l33.306-8.816l59.783,18.131l59.783-18.131l33.305,8.816l-20.046,5.448l65.302,38.052l-12.203,3.12   l57.733,58.083l18.579,81.956l-17.694-20.732l17.209,77.431l-20.984-21.638l-6.506,95.839l-13.9-27.062l-35.483,86.484   l-9.358-21.442L276.61,471.55l-8.283-18.635L250.625,477.409z M231.359,437.889l19.266,26.661l19.267-26.661l9.32,20.968   l89.809-83.36l6.486,14.864l34.932-85.138l8.986,17.494l5.816-85.684l14.224,14.668l-17.998-80.987l17.514,20.523l-11.348-50.059   l-65.495-65.893l7.161-1.831l-64.967-37.856l10.311-2.803l-4.095-1.084l-59.923,18.173l-59.923-18.173l-4.094,1.084l10.311,2.802   l-64.967,37.857l7.161,1.831l-65.495,65.893L62.27,191.238l17.514-20.523l-17.998,80.987l14.224-14.668l5.816,85.684l8.986-17.494   l34.933,85.138l6.486-14.864l89.808,83.36L231.359,437.889z"/></g><polygon xmlns="http://www.w3.org/2000/svg" points="201.591,169.471 229.439,174.336 183.433,152.128 173.134,160.555 160.364,171.253 179.583,166.427   187.163,176.685 "/><polygon xmlns="http://www.w3.org/2000/svg" points="321.224,166.427 340.442,171.253 327.672,160.555 317.373,152.128 271.367,174.336 299.216,169.471   313.644,176.685 "/><path xmlns="http://www.w3.org/2000/svg" d="M369.703,191.212c0,0-24.813-54.451-28.792-68.849c5.008,23.849,8.465,32.543,8.639,32.973l11.619,36.207  l-35.011,40.755c-0.637,0.745-1.158,1.692-1.158,2.673v30.386l-16.562,27.675l-14.262,9.267L255,285.064v-15.971l34.749-29.615  c1.461-1.24,1.806-3.324,0.925-5.025l-8.115-15.619c-0.1-0.193-0.232-0.373-0.357-0.544c-3.575-6.56-17.105-31.891-22.53-49.459  c3.737,22.241,12.758,41.275,16.353,48.237c-4.255,0.74-14.616,2.323-25.397,2.323c-0.064,0-0.128,0.001-0.192,0.004  c-10.437,0.484-20.762-1.401-24.796-2.254c3.569-6.899,12.644-25.99,16.395-48.31c-5.559,17.999-19.617,44.148-22.767,49.907  c-0.003,0.005,0.18,0.01,0.177,0.015l-0.444,1.15v0.001l0,0l-8.124,14.459c-0.94,1.712-0.395,3.85,1.094,5.114L247,269.093v15.971  l-39.637,17.234l-14.554-9.267L176,265.357v-30.386c0-0.98-0.397-1.928-1.033-2.673l-34.862-40.755c0,0,15.131-44.719,20.272-69.195  c-3.978,14.398-28.823,68.864-28.823,68.864c-0.437,1.359,0.019,2.846,0.946,3.931L168,236.489v30.014  c0,0.75,0.294,1.486,0.682,2.128L186,297.126v33.289L212.59,358h14.677l6.686,19.809l5.69-7.711l10.982,18.005l10.982-18.098  l5.69,7.819L273.983,358h14.677L316,330.415v-33.289l17.318-28.495c0.388-0.642,0.682-1.378,0.682-2.128v-30.014l35.129-41.346  C370.056,194.058,370.139,192.571,369.703,191.212z M219.514,235.379l5.471-9.968c4.965,1.002,15.148,2.685,25.734,2.205  c10.819-0.009,20.979-1.468,25.899-2.301l5.18,10.01l-31.174,26.468L219.514,235.379z M308,327.008L285.252,349h-17.198  l-3.597,10.927l-3.564-4.684l-10.268,16.927l-10.268-16.875l-3.564,4.623L233.196,349h-17.199L194,327.008v-23.513l10.672,6.917  c1.156,0.74,2.539,0.881,3.798,0.33l8.545-3.742h67.221l8.612,3.742c0.528,0.231,1.089,0.332,1.648,0.332  c0.775,0,1.785-0.226,2.457-0.655L308,303.495V327.008z"/></g><g id="SvgjsG1019" featureKey="8FbbNb-0" transform="matrix(3.1390886159130824,0,0,3.1390886159130824,98.4887285085359,2.667726494582972)" fill="#000"><path d="M4.12 6 c2.28 0 3.26 1.06 3.26 3.22 l0 0.5 c0 1.44 -0.44 2.34 -1.42 2.8 l0 0.04 c1.18 0.46 1.64 1.5 1.64 2.98 l0 1.14 c0 2.16 -1.14 3.32 -3.34 3.32 l-3.46 0 l0 -14 l3.32 0 z M3.98 13.7 l-0.98 0 l0 4.3 l1.26 0 c0.74 0 1.14 -0.34 1.14 -1.38 l0 -1.22 c0 -1.3 -0.42 -1.7 -1.42 -1.7 z M4.06 8 l-1.06 0 l0 3.7 l0.86 0 c0.82 0 1.32 -0.36 1.32 -1.48 l0 -0.78 c0 -1 -0.34 -1.44 -1.12 -1.44 z M8.920000000000002 20 l0 -14 l2.2 0 l0 14 l-2.2 0 z M16.020000000000003 14.2 l0 -2 l3.08 0 l0 4.44 c0 2.24 -1.12 3.52 -3.28 3.52 s-3.28 -1.28 -3.28 -3.52 l0 -7.28 c0 -2.24 1.12 -3.52 3.28 -3.52 s3.28 1.28 3.28 3.52 l0 1.36 l-2.08 0 l0 -1.5 c0 -1 -0.44 -1.38 -1.14 -1.38 s-1.14 0.38 -1.14 1.38 l0 7.56 c0 1 0.44 1.36 1.14 1.36 s1.14 -0.36 1.14 -1.36 l0 -2.58 l-1 0 z M27.92 14.780000000000001 l2.08 0 l0 1.86 c0 2.24 -1.12 3.52 -3.28 3.52 s-3.28 -1.28 -3.28 -3.52 l0 -7.28 c0 -2.24 1.12 -3.52 3.28 -3.52 s3.28 1.28 3.28 3.52 l0 1.36 l-2.08 0 l0 -1.5 c0 -1 -0.44 -1.38 -1.14 -1.38 s-1.14 0.38 -1.14 1.38 l0 7.56 c0 1 0.44 1.36 1.14 1.36 s1.14 -0.36 1.14 -1.36 l0 -2 z M36.22 6 l2.24 14 l-2.22 0 l-0.38 -2.54 l-2.7 0 l-0.38 2.54 l-2.02 0 l2.24 -14 l3.22 0 z M34.480000000000004 8.48 l-1.04 7.08 l2.12 0 l-1.04 -7.08 l-0.04 0 z M38.84 8 l0 -2 l6.8 0 l0 2 l-2.3 0 l0 12 l-2.2 0 l0 -12 l-2.3 0 z M56.540000000000006 20 l-2.24 0 c-0.12 -0.36 -0.2 -0.58 -0.2 -1.72 l0 -2.2 c0 -1.3 -0.44 -1.78 -1.44 -1.78 l-0.76 0 l0 5.7 l-2.2 0 l0 -14 l3.32 0 c2.28 0 3.26 1.06 3.26 3.22 l0 1.1 c0 1.44 -0.46 2.36 -1.44 2.82 l0 0.04 c1.1 0.46 1.46 1.5 1.46 2.96 l0 2.16 c0 0.68 0.02 1.18 0.24 1.7 z M52.96000000000001 8 l-1.06 0 l0 4.3 l0.86 0 c0.82 0 1.32 -0.36 1.32 -1.48 l0 -1.38 c0 -1 -0.34 -1.44 -1.12 -1.44 z M59.760000000000005 9.22 l0 7.56 c0 1 0.44 1.38 1.14 1.38 s1.14 -0.38 1.14 -1.38 l0 -7.56 c0 -1 -0.44 -1.38 -1.14 -1.38 s-1.14 0.38 -1.14 1.38 z M57.56 16.64 l0 -7.28 c0 -2.24 1.18 -3.52 3.34 -3.52 s3.34 1.28 3.34 3.52 l0 7.28 c0 2.24 -1.18 3.52 -3.34 3.52 s-3.34 -1.28 -3.34 -3.52 z M67.67999999999999 9.22 l0 7.56 c0 1 0.44 1.38 1.14 1.38 s1.14 -0.38 1.14 -1.38 l0 -7.56 c0 -1 -0.44 -1.38 -1.14 -1.38 s-1.14 0.38 -1.14 1.38 z M65.48 16.64 l0 -7.28 c0 -2.24 1.18 -3.52 3.34 -3.52 s3.34 1.28 3.34 3.52 l0 7.28 c0 2.24 -1.18 3.52 -3.34 3.52 s-3.34 -1.28 -3.34 -3.52 z M75.78 8 l0 4.22 l2.84 0 l0 2 l-2.84 0 l0 5.78 l-2.2 0 l0 -14 l5.82 0 l0 2 l-3.62 0 z M80.46 20 l0 -14 l2.2 0 l0 14 l-2.2 0 z M88.96 20 l-2.7 -10.14 l-0.04 0 l0 10.14 l-1.98 0 l0 -14 l2.76 0 l2.22 8.38 l0.04 0 l0 -8.38 l1.96 0 l0 14 l-2.26 0 z M96.1 14.2 l0 -2 l3.08 0 l0 4.44 c0 2.24 -1.12 3.52 -3.28 3.52 s-3.28 -1.28 -3.28 -3.52 l0 -7.28 c0 -2.24 1.12 -3.52 3.28 -3.52 s3.28 1.28 3.28 3.52 l0 1.36 l-2.08 0 l0 -1.5 c0 -1 -0.44 -1.38 -1.14 -1.38 s-1.14 0.38 -1.14 1.38 l0 7.56 c0 1 0.44 1.36 1.14 1.36 s1.14 -0.36 1.14 -1.36 l0 -2.58 l-1 0 z"/></g>
			</g>
		</svg>
	